# xmcd CD database file
#
# Track frame offsets:
#	150
#	17055
#	32491
#	49927
#	59435
#	75586
#	92591
#	109273
#	129180
#	135065
#	149835
#	165414
#	180625
#	197039
#	216877
#	232450
#	254825
#	271229
#	287607
#	304769
#
# Disc length: 4293 seconds
#
# Revision: 2
# Processed by: cddbd v1.4b41PL1 Copyright (c) Steve Scherf et al.
# Submitted via: Feurio! 1.50.2ß - http://www.feurio.com
#
DISCID=2210c314
DTITLE=Various Artist - Bravo 2000
DYEAR=1900
DGENRE=
TTITLE0=Atemlos - Schlaflos
TTITLE1=Verena - Ist Das Alles?
TTITLE2=2-4 Family - Stay
TTITLE3=7- Britny Spears - Lucky
TTITLE4=Alex - Willst Du...
TTITLE5=ATC - My Heart Beats Like A Drum
TTITLE6=Backstreet Boys - As Long As You Love Me
TTITLE7=Backstreet Boys - I Need You Tonight
TTITLE8=104.6RTL Radio - Ich verpiss mich
TTITLE9=bomfunk mc's - b-boys and flygirls (radio edit)
TTITLE10=Britney Spears - One Kiss From You
TTITLE11=Brtitney Spears - Crazy
TTITLE12=Britney Spears - -What U See (Is What U Get)
TTITLE13=CARLOS SANTANA - MARIA MARIA
TTITLE14=Die 3. Generation - Halt's Maul
TTITLE15=Die 3 Generation - Ich will das Du mich Liebst
TTITLE16=Die 3 Generation - Du bist der Sommer
TTITLE17=3. Generation - Geschichte
TTITLE18=Die 3. Generation - Vater wo bist Du?
TTITLE19=Die 3.Generation - Das ist Welt
EXTD=
EXTT0=by www.mp3hitz.net (DE-Charts)
EXTT1=by www.charthitz.org (Charts)
EXTT2=
EXTT3=
EXTT4=by www.charthitz.org (Charts)
EXTT5=ICQ: 40111117 AIM: mRoiZo83
EXTT6=
EXTT7=Made with RealJukebox (tm)
EXTT8=
EXTT9=
EXTT10=TEAM RNS
EXTT11=
EXTT12=Kewl21 is Elite
EXTT13=
EXTT14=www.digitalshadows.cjb.net
EXTT15=
EXTT16=
EXTT17=
EXTT18=Single Edit
EXTT19=
PLAYORDER=
